<mxfile host="app.diagrams.net" modified="2023-09-22T10:31:16.459Z" agent="Mozilla/5.0 (Windows NT 10.0; Win64; x64) AppleWebKit/537.36 (KHTML, like Gecko) Chrome/100.0.4896.75 Safari/537.36" version="21.7.5" etag="xiz8156Kd1d5IRvi4VXD" type="github">
  <diagram name="第 1 页" id="BxpWBGhLugeLvvQ4xKgi">
    <mxGraphModel>
      <root>
        <mxCell id="0" />
        <mxCell id="1" parent="0" />
      </root>
    </mxGraphModel>
  </diagram>
</mxfile>
